HIERARCHY
ROOT Hips
{
	OFFSET -3.958830 18.904000 13.208200
	CHANNELS 6 Xposition Yposition Zposition Zrotation Yrotation Xrotation 
	JOINT LHipJoint
	{
		OFFSET 0.000000 0.000000 0.000000
		CHANNELS 3 Zrotation Yrotation Xrotation
		JOINT LeftUpLeg
		{
			OFFSET 1.800000 -1.400000 0.085000
			CHANNELS 3 Zrotation Yrotation Xrotation
			JOINT LeftLeg
			{
				OFFSET 2.215000 -6.000000 0.000000
				CHANNELS 3 Zrotation Yrotation Xrotation
				JOINT LeftFoot
				{
					OFFSET 2.500000 -6.900000 0.000000
					CHANNELS 3 Zrotation Yrotation Xrotation
					JOINT LeftToeBase
					{
						OFFSET 0.200000 -0.500000 1.950000
						CHANNELS 3 Zrotation Yrotation Xrotation
						End Site
						{
							OFFSET 0.000000 0.000000 0.000000
						}
					}
				}
			}
		}
	}
	JOINT RHipJoint
	{
		OFFSET 0.000000 0.000000 0.000000
		CHANNELS 3 Zrotation Yrotation Xrotation
		JOINT RightUpLeg
		{
			OFFSET -1.800000 -1.400000 0.085000
			CHANNELS 3 Zrotation Yrotation Xrotation
			JOINT RightLeg
			{
				OFFSET -2.215000 -6.000000 0.000000
				CHANNELS 3 Zrotation Yrotation Xrotation
				JOINT RightFoot
				{
					OFFSET -2.500000 -6.900000 0.000000
					CHANNELS 3 Zrotation Yrotation Xrotation
					JOINT RightToeBase
					{
						OFFSET -0.200000 -0.500000 1.950000
						CHANNELS 3 Zrotation Yrotation Xrotation
						End Site
						{
							OFFSET 0.000000 0.000000 0.000000
						}
					}
				}
			}
		}
	}
	JOINT LowerBack
	{
		OFFSET 0.000000 0.000000 0.000000
		CHANNELS 3 Zrotation Yrotation Xrotation
		JOINT Spine
		{
			OFFSET -0.087000 1.940000 -0.288900
			CHANNELS 3 Zrotation Yrotation Xrotation
			JOINT Spine1
			{
				OFFSET 0.000000 1.950000 0.060000
				CHANNELS 3 Zrotation Yrotation Xrotation
				JOINT Neck
				{
					OFFSET 0.000000 0.000000 0.000000
					CHANNELS 3 Zrotation Yrotation Xrotation
					JOINT Neck1
					{
						OFFSET 0.000000 1.600000 0.340000
						CHANNELS 3 Zrotation Yrotation Xrotation
						JOINT Head
						{
							OFFSET 0.000000 1.667000 -0.240000
							CHANNELS 3 Zrotation Yrotation Xrotation
							End Site
							{
								OFFSET 0.000000 0.000000 0.000000
							}
						}
					}
				}
				JOINT LeftShoulder
				{
					OFFSET 0.000000 0.000000 0.000000
					CHANNELS 3 Zrotation Yrotation Xrotation
					JOINT LeftArm
					{
						OFFSET 2.700000 1.550000 -0.730000
						CHANNELS 3 Zrotation Yrotation Xrotation
						JOINT LeftForeArm
						{
							OFFSET 5.450000 0.000000 0.000000
							CHANNELS 3 Zrotation Yrotation Xrotation
							JOINT LeftHand
							{
								OFFSET 3.450000 0.000000 0.000000
								CHANNELS 3 Zrotation Yrotation Xrotation
								JOINT LeftHandIndex1
								{
									OFFSET 0.750000 0.000000 0.000000
									CHANNELS 3 Zrotation Yrotation Xrotation
									End Site
									{
										OFFSET 0.000000 0.000000 0.000000
									}
								}
							}
						}
					}
				}
				JOINT RightShoulder
				{
					OFFSET 0.000000 0.000000 0.000000
					CHANNELS 3 Zrotation Yrotation Xrotation
					JOINT RightArm
					{
						OFFSET -2.700000 1.550000 -0.730000
						CHANNELS 3 Zrotation Yrotation Xrotation
						JOINT RightForeArm
						{
							OFFSET -5.450000 0.000000 0.000000
							CHANNELS 3 Zrotation Yrotation Xrotation
							JOINT RightHand
							{
								OFFSET -3.450000 0.000000 0.000000
								CHANNELS 3 Zrotation Yrotation Xrotation
								JOINT RightHandIndex1
								{
									OFFSET -0.750000 0.000000 0.000000
									CHANNELS 3 Zrotation Yrotation Xrotation
									End Site
									{
										OFFSET 0.000000 0.000000 0.000000
									}
								}
							}
						}
					}
				}
			}
		}
	}
}
MOTION
Frames: 13
Frame Time: 0.016667
-0.596690 17.744740 -0.886670 -2.945784 -9.852433 6.140081 -14.789576 12.249273 2.709338 2.586251 -2.445849 -16.374500 -9.018399 6.581865 16.753877 0.207714 3.740829 3.272991 -0.028700 0.071210 -0.003970 18.683688 -11.775972 2.722235 -2.665181 0.779879 -16.179846 6.153930 -4.575982 13.686779 0.242710 -3.521976 3.052691 0.032210 0.333110 0.124380 -4.607207 1.733949 -6.554533 12.059518 1.370999 0.900908 -6.113735 0.966450 7.241595 3.863522 8.373853 -7.701122 14.756364 -21.939927 21.187348 -5.107920 -14.604180 7.843560 -17.474700 -5.783167 3.066092 -40.787657 -4.940306 -6.630400 -7.714443 -32.998867 1.610290 -3.819933 3.504030 -0.538020 0.316950 -0.254160 0.085440 9.572491 0.027003 4.553518 56.969481 -1.441143 -6.282359 5.049930 18.024212 -1.552696 2.890750 -1.725141 0.089430 -0.149350 -0.149220 0.339200 
-0.600550 17.744670 -0.894990 -3.272319 -9.727188 6.205614 -14.775277 12.241741 2.711582 3.035625 -2.506716 -16.687594 -9.156915 6.673890 17.079402 0.196128 3.771056 3.239355 -0.010960 0.078980 0.034120 18.699819 -11.758732 2.758836 -2.072204 0.748599 -15.622596 5.836578 -4.377173 12.739357 0.210767 -3.431276 3.079968 0.026420 0.288740 0.122280 -4.650137 1.725268 -6.603813 12.469406 1.543107 1.192758 -5.932581 1.148204 7.101285 3.836901 8.405590 -7.710103 14.459740 -21.165490 22.935519 -4.911130 -13.901050 7.316360 -17.120311 -5.544633 2.948427 -41.669151 -5.582344 -6.474672 -8.649785 -33.392865 1.851011 -3.786328 3.475246 -0.478690 0.279400 -0.208490 0.075030 9.303475 -0.272178 4.524878 57.178632 -1.601913 -6.346434 4.816041 17.404245 -1.492587 2.903386 -1.681357 0.087150 -0.149380 -0.159100 0.315030 
-0.606220 17.745690 -0.902070 -3.592351 -9.580222 6.131581 -14.763629 12.251524 2.718740 3.573174 -2.558040 -16.897254 -9.389261 6.796246 17.408552 0.192428 3.804448 3.195269 0.042010 0.120080 0.102510 18.711785 -11.727111 2.791316 -1.568540 0.695743 -15.003570 5.667221 -4.246046 11.960254 0.154988 -3.353678 3.091407 0.030840 0.216630 0.124450 -4.683542 1.654866 -6.661094 12.811098 1.637235 1.563721 -5.647014 1.274387 7.071642 3.731972 8.280881 -7.688827 13.797226 -20.170001 25.255232 -4.544300 -13.117670 6.303460 -16.735287 -5.243397 2.851703 -42.872446 -6.222309 -6.416519 -9.274331 -34.057885 1.996181 -3.721942 3.460610 -0.403720 0.219110 -0.140330 0.068790 9.184302 -0.541618 4.408631 57.246895 -1.637712 -6.399771 4.479879 16.766207 -1.433186 2.924121 -1.642324 0.100920 -0.160020 -0.189980 0.287310 
-0.612960 17.746530 -0.907120 -3.869622 -9.405538 5.984429 -14.749601 12.284598 2.736040 4.070468 -2.587028 -17.025598 -9.604004 6.909033 17.667610 0.201293 3.824243 3.148930 0.084310 0.151210 0.160010 18.721256 -11.697668 2.819152 -1.043693 0.644459 -14.454344 5.324911 -4.123144 11.496933 0.103437 -3.273897 3.095913 0.023860 0.137770 0.127310 -4.714768 1.542784 -6.731939 13.149820 1.655539 2.028536 -5.448597 1.373453 6.964894 3.559311 7.875156 -7.691272 12.616064 -18.801318 28.055350 -3.994930 -12.223690 5.409590 -16.155361 -4.796576 2.746261 -44.449316 -6.928445 -6.366539 -9.502544 -34.736817 2.032177 -3.652591 3.456286 -0.332320 0.151900 -0.072940 0.053800 8.972077 -0.725020 4.323472 57.598654 -1.664987 -6.527644 4.040474 16.070905 -1.370269 2.956551 -1.602636 0.122470 -0.184600 -0.213280 0.262120 
-0.619690 17.741250 -0.910210 -4.215218 -9.306141 5.948728 -14.738222 12.315426 2.753677 4.624395 -2.611142 -17.248555 -9.828393 7.027388 17.912821 0.212336 3.846024 3.100451 0.136320 0.202200 0.217760 18.729813 -11.661834 2.842623 -0.462115 0.643911 -14.152565 4.990677 -4.016010 11.282694 0.060672 -3.202437 3.101631 0.031540 0.064010 0.135390 -4.741703 1.427651 -6.789116 13.557640 1.670425 2.422613 -5.313504 1.459878 6.838373 3.463115 7.289152 -7.535796 11.226617 -17.442869 30.324807 -3.873860 -11.076560 4.467320 -15.692728 -4.018113 2.474085 -45.822502 -7.676787 -6.170218 -10.014891 -35.522221 2.205163 -3.598947 3.469527 -0.284940 0.100340 -0.012600 0.044930 8.718475 -1.114701 4.141641 58.034995 -1.669262 -6.679111 3.543923 15.561991 -1.352932 2.979900 -1.581817 0.152370 -0.211900 -0.241870 0.242000 
-0.627450 17.735700 -0.911090 -4.481114 -9.379871 5.916944 -14.733879 12.370375 2.772102 5.048251 -2.617492 -17.442893 -9.945210 7.146766 18.227171 0.214202 3.901271 3.055511 0.144770 0.211470 0.229410 18.730946 -11.613556 2.855567 0.066849 0.676621 -14.018130 4.619455 -3.937277 11.332153 0.044640 -3.150894 3.109042 0.025830 0.039970 0.142450 -4.747238 1.247403 -6.832510 13.841222 1.590803 2.800289 -5.265606 1.470389 6.688943 3.312775 6.400753 -7.256322 9.351862 -15.647969 32.276496 -3.817250 -9.746550 4.023600 -15.466478 -3.061441 2.126668 -46.730813 -8.155745 -5.954921 -10.561921 -36.340949 2.416356 -3.584374 3.472315 -0.254870 0.080960 0.013380 0.033410 8.787018 -1.491151 3.856919 58.030568 -1.526786 -6.727711 3.306736 15.062252 -1.314482 2.992923 -1.553089 0.160660 -0.221520 -0.236600 0.230970 
-0.634730 17.727830 -0.907450 -4.690381 -9.451813 5.999314 -14.736681 12.432618 2.784835 5.332780 -2.610540 -17.655457 -9.971443 7.231069 18.411312 0.236554 3.954303 3.042490 0.119920 0.184120 0.208030 18.728879 -11.553945 2.855764 0.585767 0.739131 -14.073490 4.174420 -3.845130 11.569744 0.060660 -3.115999 3.131962 0.006750 0.065760 0.144870 -4.740248 1.032775 -6.845038 14.026381 1.440433 2.948943 -5.290850 1.386476 6.557337 3.062530 5.224103 -6.880524 7.078259 -13.501370 33.450289 -3.785640 -8.256840 4.727740 -15.169081 -1.804867 1.740545 -47.550875 -8.500801 -5.723881 -11.233051 -37.446389 2.740406 -3.598586 3.484410 -0.264710 0.097210 0.000110 0.035940 8.943582 -1.997771 3.489862 57.898110 -1.401612 -6.803683 3.344789 14.803232 -1.292335 3.007124 -1.541699 0.155150 -0.222140 -0.225490 0.236070 
-0.643010 17.721740 -0.902160 -4.766265 -9.529200 6.030994 -14.755231 12.521220 2.802731 5.476923 -2.611178 -17.823034 -9.937980 7.316040 18.653187 0.247829 4.030902 3.029724 0.078550 0.132650 0.178230 18.709967 -11.476989 2.843813 0.940485 0.818969 -14.219381 3.786568 -3.787622 12.001038 0.085248 -3.089905 3.148971 -0.019100 0.111380 0.145970 -4.685929 0.735927 -6.850290 13.870717 1.276798 3.137467 -5.159068 1.291137 6.416570 2.719263 3.892998 -6.575293 4.604167 -11.031922 34.253695 -3.579240 -6.573450 5.490330 -14.991574 -0.713811 1.419220 -48.095776 -8.686605 -5.545269 -11.752536 -38.664062 3.013188 -3.625592 3.486159 -0.269650 0.122190 -0.025920 0.032800 9.388342 -2.216905 3.184407 57.344163 -1.346877 -6.871736 3.648397 14.545652 -1.244397 3.015926 -1.522271 0.133340 -0.212050 -0.199200 0.237720 
-0.649000 17.717060 -0.893730 -4.855950 -9.624746 6.059595 -14.774439 12.622741 2.816770 5.556831 -2.591425 -17.911959 -9.837432 7.360949 18.767302 0.255130 4.094495 3.019618 0.025940 0.066090 0.140210 18.690402 -11.392149 2.827689 1.207517 0.900988 -14.364972 3.468696 -3.753511 12.492209 0.120190 -3.079754 3.159529 -0.050170 0.161210 0.148930 -4.630402 0.402101 -6.844943 13.828882 1.052001 3.262724 -5.120674 1.144073 6.265950 2.315406 2.287906 -6.340634 1.720832 -8.283906 34.683371 -3.406960 -4.722990 6.491960 -14.904906 0.301876 1.151744 -48.358987 -8.680132 -5.388427 -12.377910 -39.856618 3.324811 -3.663546 3.497951 -0.282820 0.154500 -0.064220 0.020870 9.996384 -2.177393 2.967027 56.504056 -1.344962 -6.902998 4.214345 14.248563 -1.176329 3.023915 -1.508492 0.109980 -0.210970 -0.162390 0.236840 
-0.652120 17.714040 -0.884110 -4.937602 -9.649737 6.115882 -14.796582 12.723505 2.822364 5.593845 -2.587552 -18.036807 -9.610647 7.382868 18.998712 0.230976 4.172859 2.997857 -0.028160 -0.006850 0.107010 18.671795 -11.298417 2.810284 1.463721 0.992131 -14.502269 3.178742 -3.724904 12.904609 0.156711 -3.074336 3.163149 -0.074860 0.211990 0.154800 -4.574437 0.056429 -6.822429 13.909306 0.792067 3.339283 -5.213443 0.967417 6.159359 1.954648 0.639431 -6.137543 -1.153050 -5.509337 34.558760 -3.426920 -2.680860 7.097210 -14.895475 1.257160 0.866955 -48.333581 -8.649729 -5.203270 -13.002960 -41.008707 3.626793 -3.716853 3.500344 -0.284550 0.192180 -0.106100 -0.002320 10.579984 -2.100636 2.809882 55.798483 -1.447278 -7.067507 4.499966 14.202899 -1.145396 3.012189 -1.489529 0.074910 -0.204890 -0.111780 0.222950 
-0.653780 17.711330 -0.873460 -4.822601 -9.797412 6.229250 -14.829876 12.820430 2.831825 5.396265 -2.611285 -18.179758 -9.388485 7.383631 19.160426 0.171542 4.264312 2.979701 -0.094570 -0.103100 0.063040 18.644874 -11.195490 2.775461 1.366227 1.097289 -14.775779 3.163281 -3.762195 13.305691 0.208205 -3.086094 3.166442 -0.095540 0.285710 0.149660 -4.492089 -0.308430 -6.772373 13.729241 0.571283 3.309617 -5.278563 0.824730 6.066710 1.541018 -1.111752 -5.948218 -4.096698 -2.472484 33.796310 -3.242360 -0.545620 7.660370 -14.732617 2.347929 0.571280 -48.487169 -8.635899 -4.984963 -13.312373 -42.218302 3.796229 -3.788600 3.487280 -0.277350 0.242020 -0.173050 -0.030080 11.125985 -2.081040 2.640057 55.111937 -1.492954 -7.225314 4.885774 14.240691 -1.117523 2.978083 -1.464763 0.011220 -0.179260 -0.041100 0.196730 
-0.652610 17.708460 -0.864420 -4.652583 -9.831038 6.291886 -14.866157 12.919064 2.839428 5.106912 -2.623242 -18.228519 -9.170348 7.330584 19.133921 0.105839 4.323167 2.970780 -0.137680 -0.166710 0.032550 18.616638 -11.088678 2.734205 1.197884 1.187094 -15.036351 3.170144 -3.800042 13.711207 0.244859 -3.094405 3.162482 -0.095520 0.348530 0.145580 -4.404994 -0.687648 -6.710674 13.547480 0.252698 3.273170 -5.308880 0.597914 6.088469 1.050304 -2.954271 -5.888118 -7.217728 0.610112 32.698378 -2.954780 1.478570 7.659570 -14.467227 3.284636 0.407000 -48.758814 -8.577331 -4.835365 -13.513748 -43.543348 3.889960 -3.842064 3.473905 -0.260870 0.279810 -0.219580 -0.046340 11.730621 -1.842538 2.545573 54.236600 -1.486969 -7.349428 5.281215 14.399874 -1.092245 2.944606 -1.443231 -0.049600 -0.146330 0.012210 0.175610 
-0.650810 17.709470 -0.854080 -4.598320 -9.867531 6.364555 -14.894926 13.004427 2.839584 5.012169 -2.603196 -18.187751 -9.121587 7.321000 18.996656 0.064804 4.374060 2.969713 -0.162590 -0.194580 0.011790 18.598297 -10.981392 2.697690 1.129674 1.272077 -15.269325 3.210474 -3.816291 14.065454 0.268368 -3.089716 3.159899 -0.082590 0.405480 0.128550 -4.344036 -1.038654 -6.642423 13.600260 -0.139917 3.228069 -5.347025 0.309256 5.998790 0.456678 -4.865281 -5.903116 -10.531347 3.798959 31.288946 -2.395530 3.364820 7.452100 -14.218489 4.212107 0.317717 -49.129474 -8.467513 -4.727309 -13.261424 -44.772619 3.802611 -3.875295 3.458100 -0.253980 0.303160 -0.254270 -0.050850 12.546686 -1.551054 2.465046 53.032629 -1.516424 -7.308502 5.401527 14.031984 -1.099996 2.933977 -1.421444 -0.099850 -0.101380 0.044370 0.168890 
